<svg width="50" height="50" viewBox="0 0 50 50" fill="none" xmlns="http://www.w3.org/2000/svg">
<circle cx="25" cy="25" r="23.25" fill="#677294" fill-opacity="0.8" stroke="white" stroke-width="3.5"/>
<path d="M19.0002 20.2239H20.7502V18.4739V17.4895C20.7502 17.1205 21.068 16.75 21.5508 16.75H29.8102C30.2929 16.75 30.6107 17.1205 30.6107 17.4895V18.4732V20.2232H32.3607H35.9453C36.6295 20.2235 37.1109 20.7542 37.1109 21.319V33.1049C37.1109 33.6699 36.6295 34.2001 35.946 34.2001H29.7135C32.1825 32.8244 33.868 30.2241 33.868 27.2113C33.868 22.7404 30.1564 19.1778 25.6805 19.1778C21.2052 19.1778 17.4936 22.7405 17.4936 27.2113C17.4936 30.224 19.1791 32.8244 21.6479 34.2001H15.4149C14.7314 34.2001 14.25 33.6699 14.25 33.1049V21.319C14.25 20.754 14.7314 20.2239 15.4149 20.2239H19.0002ZM28.1819 27.2113C28.1819 28.4932 27.0985 29.6109 25.6805 29.6109C24.2628 29.6109 23.1798 28.4936 23.1798 27.2113C23.1798 25.9289 24.2628 24.8117 25.6805 24.8117C27.0983 24.8117 28.1819 25.9298 28.1819 27.2113Z" fill="white" stroke="white" stroke-width="3.5"/>
</svg>
