<svg width="28" height="28" viewBox="0 0 28 28" fill="none" xmlns="http://www.w3.org/2000/svg">
<circle cx="14" cy="14" r="13" fill="#03174C" stroke="#FFFCFC" stroke-width="2"/>
<path d="M8.47852 16.4688H19.5109L19.479 16.7887C19.3804 17.5781 18.8191 18.0391 18.2487 18.0391H9.74077C9.09609 18.0391 8.59146 17.484 8.51109 16.7945C8.5102 16.7874 8.51463 16.8311 8.47852 16.4688V16.4688Z" fill="#FFFCFC"/>
<path d="M19.9924 11.6478L19.5816 15.7657H8.40907L8.00787 11.7352C7.90048 10.79 8.91994 10.3532 9.39059 10.894C10.5229 12.1997 10.6441 12.4574 11.0245 12.4121C11.1675 12.3947 11.2697 12.3306 11.3545 12.2524C13.6599 10.0406 13.5091 10.1839 13.5329 10.1651C13.8431 9.92641 14.2422 9.96578 14.4759 10.1604C16.8054 12.1178 16.6974 12.0316 16.7494 12.0612C16.9669 12.1862 17.2234 12.1703 17.4427 11.9553C18.7372 10.6833 18.6551 10.7625 18.6791 10.7433C19.2713 10.2822 20.0872 10.818 19.9924 11.6478V11.6478Z" fill="#FFFCFC"/>
</svg>
