<svg width="26" height="24" viewBox="0 0 26 24" fill="none" xmlns="http://www.w3.org/2000/svg">
<path d="M25.371 4.77325C24.9676 3.83918 24.3859 2.99274 23.6585 2.2813C22.9306 1.56774 22.0723 1.00069 21.1304 0.610971C20.1537 0.205255 19.1062 -0.00241306 18.0486 2.11541e-05C16.5649 2.11541e-05 15.1172 0.406318 13.8592 1.17377C13.5583 1.35735 13.2724 1.559 13.0015 1.7787C12.7306 1.559 12.4447 1.35735 12.1438 1.17377C10.8857 0.406318 9.43812 2.11541e-05 7.95438 2.11541e-05C6.88597 2.11541e-05 5.85067 0.204674 4.87255 0.610971C3.92753 1.00222 3.07581 1.56502 2.34448 2.2813C1.61615 2.99194 1.03433 3.83858 0.632017 4.77325C0.213682 5.74536 0 6.77765 0 7.84004C0 8.84224 0.204653 9.88657 0.61095 10.949C0.951035 11.8368 1.43859 12.7577 2.06158 13.6877C3.04873 15.1594 4.40606 16.6943 6.09144 18.2503C8.88435 20.8295 11.6502 22.6112 11.7676 22.6834L12.4808 23.1409C12.7968 23.3425 13.2031 23.3425 13.5191 23.1409L14.2324 22.6834C14.3498 22.6082 17.1126 20.8295 19.9085 18.2503C21.5939 16.6943 22.9512 15.1594 23.9384 13.6877C24.5614 12.7577 25.0519 11.8368 25.389 10.949C25.7953 9.88657 26 8.84224 26 7.84004C26.003 6.77765 25.7893 5.74536 25.371 4.77325Z" fill="#FF4B4B"/>
</svg>
