<svg width="28" height="28" viewBox="0 0 28 28" fill="none" xmlns="http://www.w3.org/2000/svg">
<path fill-rule="evenodd" clip-rule="evenodd" d="M11.5446 13.1017C11.0342 13.1017 10.6306 13.4984 10.6306 14C10.6306 14.49 11.0342 14.8984 11.5446 14.8984H18.6667V20.475C18.6667 23.3334 16.3045 25.6667 13.3844 25.6667H7.60368C4.6955 25.6667 2.33334 23.345 2.33334 20.4867V7.52504C2.33334 4.65504 4.70737 2.33337 7.61555 2.33337H13.4082C16.3045 2.33337 18.6667 4.65504 18.6667 7.51337V13.1017H11.5446ZM22.9018 9.96361L26.3085 13.3586C26.4835 13.5336 26.5768 13.7553 26.5768 14.0003C26.5768 14.2336 26.4835 14.4669 26.3085 14.6303L22.9018 18.0253C22.7268 18.2003 22.4935 18.2936 22.2718 18.2936C22.0385 18.2936 21.8052 18.2003 21.6302 18.0253C21.2802 17.6753 21.2802 17.1036 21.6302 16.7536L23.4968 14.8986H18.6668V13.1019H23.4968L21.6302 11.2469C21.2802 10.8969 21.2802 10.3253 21.6302 9.97528C21.9802 9.61361 22.5518 9.61361 22.9018 9.96361Z" fill="#03174C"/>
</svg>
