<svg width="228" height="228" viewBox="0 0 228 228" fill="none" xmlns="http://www.w3.org/2000/svg">
<g clip-path="url(#clip0_1_6890)">
<g filter="url(#filter0_d_1_6890)">
<path d="M116.25 25.5C170.474 25.5 214.5 67.8455 214.5 120C214.5 172.155 170.474 214.5 116.25 214.5C62.0258 214.5 18 172.155 18 120C18 67.8455 62.0258 25.5 116.25 25.5Z" fill="#FFD426"/>
<path d="M116.25 25.5C170.474 25.5 214.5 67.8454 214.5 120C214.5 172.155 170.474 214.5 116.25 214.5C62.0258 214.5 18 172.155 18 120C18 67.8454 62.0258 25.5 116.25 25.5Z" stroke="white" stroke-width="6"/>
<path d="M174.867 85.2695C187.165 82.698 199.321 90.2143 201.994 102.043C204.668 113.872 196.853 125.564 184.555 128.136C172.257 130.707 160.101 123.191 157.427 111.362C154.754 99.5331 162.568 87.8411 174.867 85.2695Z" fill="#984DFF"/>
<path d="M103.391 57.0953C143.322 48.746 182.139 68.9382 190.474 102.779L190.728 103.803L178.989 106.258C172.694 78.408 140.135 61.237 105.943 68.3864C72.1223 75.4582 50.0103 103.599 55.6741 131.185L55.8591 132.004L44.12 134.458C36.3359 100.019 63.0898 65.5222 103.391 57.0953Z" fill="#B06BFF"/>
<path d="M133.048 100.298C136.606 116.039 152.756 126.025 169.121 122.603C185.486 119.181 195.869 103.647 192.311 87.9068C188.753 72.1665 172.603 62.1803 156.238 65.6021C139.873 69.024 129.491 84.5581 133.048 100.298Z" fill="#303135"/>
<path d="M50.3714 150.146C42.6774 116.105 79.2085 82.7067 109.63 74.8511L112.401 74.2716C142.629 69.4016 179.178 75.9139 192.422 112.773C193.167 114.859 194.105 116.882 195.207 118.828C214.51 153.277 174.046 173.518 136.726 181.893L136.731 181.914C136.273 182.01 135.814 182.106 135.351 182.181C134.876 182.302 134.418 182.398 133.96 182.494L133.955 182.473C95.3584 189.95 58.1175 184.417 50.3714 150.146Z" fill="white"/>
<path d="M140.466 120.17C144.11 119.408 146.374 120.429 146.825 122.423C147.275 124.417 145.152 126.751 142.097 127.39C139.043 128.028 136.082 126.757 135.631 124.764C135.18 122.77 136.8 120.937 140.466 120.17Z" fill="#303135"/>
<path d="M180.172 152.239C190.078 150.167 197.774 137.107 193.942 120.149C189.876 102.163 174.009 89.2828 162.609 92.1279C149.723 95.3718 149.052 112.524 151.733 123.37C156.102 140.985 167.101 154.971 180.172 152.239Z" fill="#303135"/>
<path d="M156.538 121.319C158.393 129.525 164.898 135.154 171.073 133.863C177.27 132.567 180.758 124.849 178.904 116.643C177.044 108.416 170.539 102.787 164.342 104.082C158.167 105.374 154.679 113.092 156.538 121.319Z" fill="white"/>
<path d="M166.312 109.368C169.885 108.599 172.406 110.753 174.074 114.492C174.879 116.236 175.451 118.16 176.008 120.725L176.319 122.199C176.375 122.451 176.411 122.707 176.472 122.98C176.742 124.374 175.771 125.742 174.322 126.001C172.85 126.265 171.433 125.353 171.159 123.937L170.889 122.543L170.609 121.305L170.331 120.176C169.96 118.737 169.581 117.564 169.121 116.539C168.347 114.833 167.809 114.374 167.503 114.438C166.718 114.602 166.333 115.627 166.499 117.878L166.587 118.673C166.605 118.955 166.649 119.254 166.694 119.552L166.873 120.548L167.135 122.009L167.628 124.39C167.897 125.784 166.926 127.152 165.477 127.411C164.005 127.675 162.583 126.741 162.314 125.347L161.628 121.908L161.541 121.421C160.338 114.683 161.128 110.496 166.312 109.368Z" fill="#303135"/>
<path d="M127.535 129.494C131.114 147.757 124.119 165.946 105.616 169.815C91.5859 172.748 74.647 164.531 70.7146 147.133C66.5356 128.644 80.4661 109.093 96.8481 106.151C115.409 102.841 125.329 118.218 127.535 129.494Z" fill="#303135"/>
<path d="M117.979 130.408C119.886 138.845 114.647 147.106 106.268 148.858C97.9107 150.605 89.5783 145.182 87.6714 136.746C85.7598 128.288 90.9994 120.027 99.3564 118.28C107.735 116.528 116.068 121.951 117.979 130.408Z" fill="white"/>
<path d="M100.311 123.162C106.605 121.89 109.95 125.366 112.013 131.968L112.242 132.777L112.549 133.834L113.277 136.649C113.667 138.172 112.722 139.754 111.117 140.134C109.517 140.534 107.893 139.621 107.477 138.082L106.614 134.767L106.43 134.058C105.141 129.668 103.896 128.302 101.539 128.795C100.334 129.025 99.8313 129.834 99.7393 131.853C99.6833 133.425 99.9243 135.199 100.487 137.587L100.817 138.947C100.869 139.177 100.948 139.425 101.005 139.677C101.421 141.216 100.45 142.782 98.8713 143.178C97.2708 143.578 95.6429 142.644 95.2264 141.105L95.0243 140.312L94.6486 138.852C93.9817 136.002 93.6677 133.804 93.7701 131.628C93.9437 127.24 96.0299 124.035 100.311 123.162Z" fill="#303135"/>
<path d="M89.7858 71.7282C87.8021 71.5664 85.982 70.9907 84.3749 70.0761L88.0457 63.4373C88.7506 63.8468 89.5689 64.1072 90.4373 64.1708C93.6564 64.438 96.5237 61.967 96.8161 58.7078C97.0803 55.435 94.6811 52.5553 91.4408 52.2949C88.5676 52.0762 85.9843 54.0046 85.2557 56.7464L78.0237 54.8583C79.6668 48.6145 85.541 44.2165 92.0923 44.7375C99.4413 45.3219 104.908 51.8642 104.264 59.3061C103.62 66.748 97.1348 72.3126 89.7858 71.7282Z" fill="#FF5A2E"/>
<path d="M86.735 45.3527C88.601 44.7602 90.5222 44.6027 92.3926 44.8456L91.692 52.3282C90.8591 52.2307 90.0115 52.2963 89.2057 52.5521C86.1099 53.5349 84.4827 56.8787 85.5466 59.9787C86.6175 63.0991 89.9945 64.8541 93.0903 63.8713C95.8256 63.0028 97.4228 60.2567 96.9724 57.4368L104.397 56.4594C105.124 60.9779 103.522 65.422 100.314 68.3402L103.812 74.612L103.445 76.0291L102.001 77.3379L99.9522 77.4048L98.1693 76.6703L95.1087 71.1916L95.0875 71.1984C88.2181 73.1079 80.8229 69.1682 78.4432 62.2339C76.0145 55.1569 79.7164 47.581 86.735 45.3527Z" fill="#FF5A2E"/>
<path d="M91.3009 82.1694C91.4707 82.6174 113.998 74.4123 113.771 73.9104C112.91 72.0243 107.319 71.8528 101.12 74.0501C94.904 76.2729 90.5277 80.265 91.3009 82.1694Z" fill="#303135"/>
<path d="M133.047 143.778C134.297 145.664 139.329 146.028 144.969 144.849C150.589 143.674 154.814 141.164 154.381 139.248C153.946 137.325 150.346 136.782 143.663 138.18C135.34 139.92 131.892 142.025 133.047 143.778Z" fill="#303135"/>
<path d="M142.054 142.798C146.396 141.89 150.261 141.73 152.014 142.284C150.405 143.256 148.109 144.142 145.459 144.747L144.97 144.85L144.523 144.943C140.638 145.705 137.097 145.721 134.929 145.006C136.706 144.189 139.223 143.39 142.054 142.798Z" fill="#FF4433"/>
<path d="M34.4808 121.594C31.5617 106.556 41.4612 91.7161 56.8926 88.0059C64.5865 86.1554 72.4379 87.327 78.8596 90.6657C78.8862 90.6821 78.908 90.6776 78.9345 90.694C81.1573 93.3502 83.4608 96.3632 72.7776 116.026C60.4618 138.778 52.2603 141.922 49.3744 141.69C42.4044 137.543 36.0898 130.028 34.4808 121.594Z" fill="#303135"/>
<path d="M69.1709 72.6116C71.7599 70.6196 75.529 71.0184 77.6 73.5085C79.671 75.9987 79.2565 79.624 76.6675 81.6159C59.777 94.6426 51.7388 113.775 55.8609 132.012C56.563 135.118 54.4967 138.21 51.2674 138.885C48.0162 139.565 44.8239 137.573 44.1218 134.467C38.9846 111.738 48.8528 88.2671 69.1709 72.6116Z" fill="#B06BFF"/>
<path d="M48.5584 118.769C61.504 116.063 74.2998 123.974 77.1141 136.426C79.9284 148.877 71.7026 161.185 58.757 163.892C45.8114 166.598 33.0156 158.687 30.2013 146.235C27.387 133.784 35.6129 121.476 48.5584 118.769Z" fill="#984DFF"/>
<path d="M42.3894 129.51C48.2149 128.292 54.3157 133.369 56.0043 140.84C57.6929 148.311 54.334 155.366 48.5085 156.584C42.683 157.802 36.5821 152.725 34.8936 145.254C33.205 137.783 36.5638 130.728 42.3894 129.51Z" fill="#D98CFF"/>
<path d="M137.143 58.684C136.788 57.8893 137.498 57.0347 138.382 57.1915L142.998 58.0091C143.369 58.0747 143.681 58.3136 143.829 58.647L144.648 60.4845C145.003 61.2792 144.293 62.1338 143.409 61.977L140.626 61.4837L143.957 68.9513C143.969 68.9762 143.98 69.002 143.991 69.0279L144.13 69.3395L144.105 69.3506C144.486 70.6984 143.846 72.3889 142.406 73.5168C140.613 74.9212 138.259 74.9224 137.148 73.5213C136.037 72.1202 136.589 69.8467 138.382 68.4423C139.204 67.7979 140.144 67.4493 141.028 67.3948L137.143 58.684Z" fill="#FF9D33"/>
<path d="M179.519 41.8136C179.866 40.2332 181.905 39.6628 183.08 40.8165L189.213 46.8385C189.706 47.3222 189.915 48.009 189.769 48.6718L188.966 52.3245C188.619 53.9049 186.58 54.4753 185.405 53.3216L181.708 49.6904L178.445 64.5362C178.435 64.5864 178.423 64.6372 178.411 64.688L178.275 65.3077L178.225 65.2989C177.3 67.7507 174.434 69.6702 170.973 69.9024C166.666 70.1923 163.07 67.7597 162.94 64.4716C162.81 61.1835 166.195 58.2833 170.502 57.9934C172.478 57.8601 174.303 58.2998 175.714 59.1313L179.519 41.8136Z" fill="#FF9D33"/>
</g>
</g>
<defs>
<filter id="filter0_d_1_6890" x="-3" y="12.5" width="242.5" height="235" filterUnits="userSpaceOnUse" color-interpolation-filters="sRGB">
<feFlood flood-opacity="0" result="BackgroundImageFix"/>
<feColorMatrix in="SourceAlpha" type="matrix" values="0 0 0 0 0 0 0 0 0 0 0 0 0 0 0 0 0 0 127 0" result="hardAlpha"/>
<feOffset dx="2" dy="10"/>
<feGaussianBlur stdDeviation="10"/>
<feComposite in2="hardAlpha" operator="out"/>
<feColorMatrix type="matrix" values="0 0 0 0 0 0 0 0 0 0 0 0 0 0 0 0 0 0 0.15 0"/>
<feBlend mode="normal" in2="BackgroundImageFix" result="effect1_dropShadow_1_6890"/>
<feBlend mode="normal" in="SourceGraphic" in2="effect1_dropShadow_1_6890" result="shape"/>
</filter>
<clipPath id="clip0_1_6890">
<rect width="228" height="228" fill="white"/>
</clipPath>
</defs>
</svg>
