<svg width="15" height="17" viewBox="0 0 15 17" fill="none" xmlns="http://www.w3.org/2000/svg">
<path d="M1.81662 15.7334C2.29095 15.9574 2.81867 16.0437 3.33965 15.9824C3.86063 15.9211 4.35392 15.7147 4.76329 15.3867L11.5633 9.77336L11.75 9.57336V14.6667C11.75 15.0203 11.8904 15.3595 12.1405 15.6095C12.3905 15.8596 12.7297 16 13.0833 16C13.4369 16 13.7761 15.8596 14.0261 15.6095C14.2761 15.3595 14.4166 15.0203 14.4166 14.6667L14.4166 1.33336C14.4166 0.979739 14.2761 0.640599 14.0261 0.390551C13.7761 0.140502 13.4369 2.67029e-05 13.0833 2.67029e-05C12.7297 2.67029e-05 12.3905 0.140502 12.1405 0.390551C11.8904 0.640599 11.75 0.979739 11.75 1.33336V6.42669L11.5633 6.2267L4.76329 0.613359C4.27313 0.215858 3.66104 -0.0007267 3.02996 2.67029e-05C2.61125 0.002491 2.19778 0.0933647 1.81662 0.266695C1.40439 0.448401 1.05318 0.744924 0.804924 1.12085C0.556669 1.49678 0.421869 1.93622 0.416626 2.3867L0.416626 13.6134C0.421869 14.0638 0.556669 14.5033 0.804924 14.8792C1.05318 15.2551 1.40439 15.5517 1.81662 15.7334Z" fill="white"/>
</svg>
