<svg width="14" height="17" viewBox="0 0 14 17" fill="none" xmlns="http://www.w3.org/2000/svg">
<path d="M12.6 0.767003C12.1257 0.54296 11.598 0.456667 11.077 0.517959C10.556 0.579251 10.0627 0.785662 9.65333 1.11367L2.85333 6.727L2.66667 6.927V1.83367C2.66667 1.48005 2.52619 1.14091 2.27614 0.890861C2.02609 0.640813 1.68696 0.500337 1.33333 0.500337C0.979711 0.500337 0.640573 0.640813 0.390525 0.890861C0.140476 1.14091 0 1.48005 0 1.83367V15.167C0 15.5206 0.140476 15.8598 0.390525 16.1098C0.640573 16.3599 0.979711 16.5003 1.33333 16.5003C1.68696 16.5003 2.02609 16.3599 2.27614 16.1098C2.52619 15.8598 2.66667 15.5206 2.66667 15.167V10.0737L2.85333 10.2737L9.65333 15.887C10.1435 16.2845 10.7556 16.5011 11.3867 16.5003C11.8054 16.4979 12.2188 16.407 12.6 16.2337C13.0122 16.052 13.3634 15.7554 13.6117 15.3795C13.86 15.0036 13.9948 14.5641 14 14.1137V2.887C13.9948 2.43653 13.86 1.99709 13.6117 1.62116C13.3634 1.24523 13.0122 0.948709 12.6 0.767003Z" fill="white"/>
</svg>
