<svg width="23" height="25" viewBox="0 0 23 25" fill="none" xmlns="http://www.w3.org/2000/svg">
<path d="M4.80991 0.386696C4.36336 0.131619 3.85765 -0.00172086 3.34339 1.67681e-05C2.82913 0.00175439 2.32433 0.138508 1.87952 0.396597C1.4347 0.654685 1.06546 1.02506 0.80873 1.47066C0.552002 1.91626 0.416792 2.42147 0.416626 2.93574V21.3693C0.416792 21.8836 0.552002 22.3888 0.80873 22.8344C1.06546 23.28 1.4347 23.6504 1.87952 23.9085C2.32433 24.1666 2.82913 24.3033 3.34339 24.305C3.85765 24.3068 4.36336 24.1734 4.80991 23.9184L20.9382 14.7001C21.3874 14.4431 21.7606 14.0721 22.0203 13.6244C22.2799 13.1768 22.4166 12.6685 22.4166 12.1511C22.4166 11.6336 22.2799 11.1253 22.0203 10.6777C21.7606 10.2301 21.3874 9.85897 20.9382 9.60202L4.80991 0.386696Z" fill="white"/>
</svg>
