<svg width="25" height="17" viewBox="0 0 25 17" fill="none" xmlns="http://www.w3.org/2000/svg">
<path d="M23.0166 0.268224C22.5423 0.0441802 22.0146 -0.0421119 21.4936 0.0191799C20.9726 0.0804718 20.4793 0.286883 20.07 0.614891L13.27 6.22822L13.0833 6.42822V1.33489C13.0833 0.981269 12.9428 0.64213 12.6928 0.392082C12.4427 0.142033 12.1036 0.00155728 11.75 0.00155728C11.3963 0.00155728 11.0572 0.142033 10.8072 0.392082C10.5571 0.64213 10.4166 0.981269 10.4166 1.33489V14.6682C10.4166 15.0218 10.5571 15.361 10.8072 15.611C11.0572 15.8611 11.3963 16.0016 11.75 16.0016C12.1036 16.0016 12.4427 15.8611 12.6928 15.611C12.9428 15.361 13.0833 15.0218 13.0833 14.6682V9.57489L13.27 9.77489L20.07 15.3882C20.5601 15.7857 21.1722 16.0023 21.8033 16.0016C22.222 15.9991 22.6355 15.9082 23.0166 15.7349C23.4289 15.5532 23.7801 15.2567 24.0283 14.8807C24.2766 14.5048 24.4114 14.0654 24.4166 13.6149V2.38822C24.4114 1.93775 24.2766 1.49831 24.0283 1.12238C23.7801 0.746455 23.4289 0.44993 23.0166 0.268224Z" fill="white"/>
<path d="M13.0166 0.268224C12.5423 0.0441802 12.0146 -0.0421119 11.4936 0.0191799C10.9726 0.0804718 10.4793 0.286883 10.07 0.614891L3.26996 6.22822L3.08329 6.42822V1.33489C3.08329 0.981269 2.94282 0.64213 2.69277 0.392082C2.44272 0.142033 2.10358 0.00155728 1.74996 0.00155728C1.39634 0.00155728 1.0572 0.142033 0.807151 0.392082C0.557102 0.64213 0.416626 0.981269 0.416626 1.33489V14.6682C0.416626 15.0218 0.557102 15.361 0.807151 15.611C1.0572 15.8611 1.39634 16.0016 1.74996 16.0016C2.10358 16.0016 2.44272 15.8611 2.69277 15.611C2.94282 15.361 3.08329 15.0218 3.08329 14.6682V9.57489L3.26996 9.77489L10.07 15.3882C10.5601 15.7857 11.1722 16.0023 11.8033 16.0016C12.222 15.9991 12.6355 15.9082 13.0166 15.7349C13.4289 15.5532 13.7801 15.2567 14.0283 14.8807C14.2766 14.5048 14.4114 14.0654 14.4166 13.6149V2.38822C14.4114 1.93775 14.2766 1.49831 14.0283 1.12238C13.7801 0.746455 13.4289 0.44993 13.0166 0.268224Z" fill="white"/>
</svg>
