<svg width="25" height="17" viewBox="0 0 25 17" fill="none" xmlns="http://www.w3.org/2000/svg">
<path d="M1.81662 15.7334C2.29095 15.9574 2.81867 16.0437 3.33965 15.9824C3.86063 15.9211 4.35392 15.7147 4.76329 15.3867L11.5633 9.77336L11.75 9.57336V14.6667C11.75 15.0203 11.8904 15.3595 12.1405 15.6095C12.3905 15.8596 12.7297 16 13.0833 16C13.4369 16 13.7761 15.8596 14.0261 15.6095C14.2761 15.3595 14.4166 15.0203 14.4166 14.6667L14.4166 1.33336C14.4166 0.979739 14.2761 0.640599 14.0261 0.390551C13.7761 0.140502 13.4369 2.67029e-05 13.0833 2.67029e-05C12.7297 2.67029e-05 12.3905 0.140502 12.1405 0.390551C11.8904 0.640599 11.75 0.979739 11.75 1.33336V6.42669L11.5633 6.2267L4.76329 0.613359C4.27313 0.215858 3.66104 -0.0007267 3.02996 2.67029e-05C2.61125 0.002491 2.19778 0.0933647 1.81662 0.266695C1.40439 0.448401 1.05318 0.744924 0.804924 1.12085C0.556669 1.49678 0.421869 1.93622 0.416626 2.3867L0.416626 13.6134C0.421869 14.0638 0.556669 14.5033 0.804924 14.8792C1.05318 15.2551 1.40439 15.5517 1.81662 15.7334Z" fill="white"/>
<path d="M11.8166 15.7334C12.2909 15.9574 12.8187 16.0437 13.3397 15.9824C13.8606 15.9211 14.3539 15.7147 14.7633 15.3867L21.5633 9.77336L21.75 9.57336V14.6667C21.75 15.0203 21.8904 15.3595 22.1405 15.6095C22.3905 15.8596 22.7297 16 23.0833 16C23.4369 16 23.7761 15.8596 24.0261 15.6095C24.2761 15.3595 24.4166 15.0203 24.4166 14.6667L24.4166 1.33336C24.4166 0.979739 24.2761 0.640599 24.0261 0.390551C23.7761 0.140502 23.4369 2.67029e-05 23.0833 2.67029e-05C22.7297 2.67029e-05 22.3905 0.140502 22.1405 0.390551C21.8904 0.640599 21.75 0.979739 21.75 1.33336V6.42669L21.5633 6.2267L14.7633 0.613359C14.2731 0.215858 13.661 -0.0007267 13.03 2.67029e-05C12.6112 0.002491 12.1978 0.0933647 11.8166 0.266695C11.4044 0.448401 11.0532 0.744924 10.8049 1.12085C10.5567 1.49678 10.4219 1.93622 10.4166 2.3867L10.4166 13.6134C10.4219 14.0638 10.5567 14.5033 10.8049 14.8792C11.0532 15.2551 11.4044 15.5517 11.8166 15.7334Z" fill="white"/>
</svg>
