<svg width="28" height="28" viewBox="0 0 28 28" fill="none" xmlns="http://www.w3.org/2000/svg">
<path fill-rule="evenodd" clip-rule="evenodd" d="M10.4133 19.1217H16.6972C17.1708 19.1217 17.5635 18.725 17.5635 18.2467C17.5635 17.7684 17.1708 17.3834 16.6972 17.3834H10.4133C9.93975 17.3834 9.54701 17.7684 9.54701 18.2467C9.54701 18.725 9.93975 19.1217 10.4133 19.1217ZM14.3176 11.55H10.4133C9.93975 11.55 9.54701 11.9467 9.54701 12.425C9.54701 12.9034 9.93975 13.2884 10.4133 13.2884H14.3176C14.7912 13.2884 15.184 12.9034 15.184 12.425C15.184 11.9467 14.7912 11.55 14.3176 11.55ZM22.5611 10.5299C22.8326 10.5268 23.1282 10.5234 23.3969 10.5234C23.6856 10.5234 23.9167 10.7567 23.9167 11.0484V20.4284C23.9167 23.3217 21.5949 25.6667 18.7302 25.6667H9.53548C6.53218 25.6667 4.08334 23.205 4.08334 20.1717V7.59504C4.08334 4.70171 6.41667 2.33337 9.29291 2.33337H15.4612C15.7616 2.33337 15.9926 2.57837 15.9926 2.87004V6.62671C15.9926 8.76171 17.7368 10.5117 19.8507 10.5234C20.3444 10.5234 20.7797 10.5271 21.1606 10.5303C21.457 10.5328 21.7205 10.535 21.953 10.535C22.1174 10.535 22.3305 10.5326 22.5611 10.5299ZM22.8797 8.82704C21.9302 8.83054 20.8108 8.82704 20.0057 8.81887C18.7282 8.81887 17.6759 7.75604 17.6759 6.46571V3.39037C17.6759 2.88754 18.28 2.63787 18.6254 3.00071C19.2504 3.65714 20.1094 4.55945 20.9645 5.45766C21.8175 6.35376 22.6667 7.24579 23.2759 7.88554C23.6132 8.23904 23.366 8.82587 22.8797 8.82704Z" fill="#03174C"/>
</svg>
