<svg width="28" height="28" viewBox="0 0 28 28" fill="none" xmlns="http://www.w3.org/2000/svg">
<path d="M24.7464 22.9298C26.1823 21.2021 27.1811 19.154 27.6581 16.9586C28.1351 14.7633 28.0763 12.4854 27.4868 10.3176C26.8972 8.14976 25.7942 6.15583 24.2711 4.50445C22.7479 2.85308 20.8495 1.59284 18.7363 0.830353C16.6231 0.0678641 14.3573 -0.174445 12.1307 0.123923C9.90403 0.422291 7.78199 1.25256 5.94409 2.54449C4.10618 3.83642 2.60647 5.55201 1.57183 7.54613C0.537181 9.54024 -0.00196238 11.7542 5.36708e-06 14.0008C0.000760461 17.2666 1.15163 20.4279 3.25066 22.9298L3.23066 22.9468C3.30065 23.0308 3.38065 23.1028 3.45264 23.1858C3.54263 23.2888 3.63962 23.3858 3.73261 23.4858C4.01258 23.7897 4.30055 24.0817 4.60252 24.3557C4.69451 24.4397 4.7895 24.5177 4.88249 24.5976C5.20245 24.8736 5.53142 25.1356 5.87238 25.3796C5.91638 25.4096 5.95637 25.4486 6.00037 25.4795V25.4676C8.34222 27.1155 11.1359 28 13.9995 28C16.8631 28 19.6568 27.1155 21.9987 25.4676V25.4795C22.0427 25.4486 22.0817 25.4096 22.1267 25.3796C22.4666 25.1346 22.7966 24.8736 23.1165 24.5976C23.2095 24.5177 23.3045 24.4387 23.3965 24.3557C23.6985 24.0807 23.9865 23.7897 24.2664 23.4858C24.3594 23.3858 24.4554 23.2888 24.5464 23.1858C24.6174 23.1028 24.6984 23.0308 24.7684 22.9458L24.7464 22.9298ZM13.9985 6.00162C14.8884 6.00162 15.7584 6.26551 16.4983 6.75992C17.2383 7.25434 17.815 7.95707 18.1555 8.77925C18.4961 9.60143 18.5852 10.5061 18.4116 11.379C18.238 12.2518 17.8094 13.0535 17.1802 13.6828C16.5509 14.3121 15.7492 14.7406 14.8763 14.9142C14.0035 15.0878 13.0988 14.9987 12.2766 14.6582C11.4544 14.3176 10.7517 13.7409 10.2573 13.0009C9.76289 12.261 9.499 11.3911 9.499 10.5011C9.499 9.30779 9.97305 8.16332 10.8169 7.3195C11.6607 6.47567 12.8052 6.00162 13.9985 6.00162ZM6.00637 22.9298C6.02371 21.6169 6.55726 20.3636 7.49157 19.4411C8.42588 18.5186 9.68583 18.001 10.9988 18.0003H16.9982C18.3112 18.001 19.5712 18.5186 20.5055 19.4411C21.4398 20.3636 21.9733 21.6169 21.9907 22.9298C19.7977 24.9059 16.9505 25.9996 13.9985 25.9996C11.0466 25.9996 8.19929 24.9059 6.00637 22.9298Z" fill="#99A1FF"/>
</svg>
